<svg width="28" height="28" viewBox="0 0 28 28" fill="none" xmlns="http://www.w3.org/2000/svg">
<path fill-rule="evenodd" clip-rule="evenodd" d="M12.8346 0.0293439C8.14667 0.438338 4.01781 3.1273 1.72925 7.26171C-0.121186 10.6047 -0.508773 14.7127 0.673967 18.4468C1.35502 20.5971 2.50787 22.4664 4.1777 24.1279C5.82574 25.7678 7.77193 26.9109 10.0347 27.5681C10.6827 27.7563 11.7169 27.997 11.8866 27.9991C11.9427 27.9998 11.9573 26.9556 11.9573 22.964V17.9279H8.78782V13.967H11.9465L11.9727 11.9724C12.0012 9.80356 12.0437 9.44588 12.3781 8.56316C12.9619 7.02202 14.2295 6.0001 16.0425 5.60916C16.6709 5.47364 18.4409 5.47607 19.5981 5.61403C20.0495 5.66784 20.4761 5.72595 20.5462 5.74315L20.6735 5.7745V9.20319L19.1312 9.22707C17.745 9.24852 17.5514 9.26323 17.2186 9.37249C16.6041 9.57427 16.2127 9.99821 16.0103 10.6812C15.9367 10.9296 15.9192 11.2742 15.9192 12.4778V13.967H17.9851C20.0341 13.967 20.0509 13.968 20.0509 14.0837C20.0509 14.1479 19.9236 15.0121 19.7679 16.004C19.6123 16.996 19.4849 17.8347 19.4849 17.8678C19.4849 17.9086 19.0395 17.9279 18.0983 17.9279H16.7116V22.964C16.7116 27.1158 16.7248 28 16.7869 28C16.8283 28 17.1819 27.9123 17.5728 27.8053C19.805 27.1937 21.9057 25.9925 23.6113 24.3528C26.0135 22.0433 27.4338 19.2406 27.8992 15.8909C28.0449 14.8426 28.0309 13.0603 27.8686 11.998C27.4006 8.9347 26.0686 6.2884 23.9019 4.11725C21.5771 1.7876 18.8298 0.454521 15.5796 0.0790252C14.8966 8.9546e-05 13.4666 -0.0257696 12.8346 0.0293439Z" fill="white"/>
</svg>
