<svg width="28" height="28" viewBox="0 0 28 28" fill="none" xmlns="http://www.w3.org/2000/svg">
<path fill-rule="evenodd" clip-rule="evenodd" d="M12.9707 0.0503709C10.7536 0.22085 8.57264 0.921118 6.74818 2.04819C4.77335 3.26819 3.18142 4.86872 2.00286 6.81922C-0.603526 11.1328 -0.670905 16.6391 1.82898 21.0248C3.46904 23.902 6.0239 26.0814 9.12916 27.2519C9.73047 27.4786 11.0468 27.8526 11.2432 27.8526C11.3143 27.8526 11.3301 27.7097 11.3293 27.0752C11.3288 26.6477 11.3078 26.2654 11.2827 26.2257C11.2499 26.1739 10.9292 26.1566 10.1445 26.1642C8.93954 26.176 8.59074 26.1154 7.92661 25.7789C7.36577 25.4948 7.22749 25.3387 6.82911 24.5394C6.27307 23.4238 6.08837 23.1512 5.57886 22.6936C5.16141 22.3186 4.76856 21.8653 4.76856 21.7585C4.76856 21.6909 5.16147 21.5724 5.38043 21.5739C5.64169 21.5758 6.21529 21.8095 6.60407 22.0727C6.80705 22.2101 7.00937 22.4375 7.24395 22.7919C7.67933 23.4496 8.28909 24.0676 8.71809 24.2862C9.12254 24.4922 9.6442 24.5439 10.2974 24.4428C10.9595 24.3402 11.2135 24.2519 11.2648 24.1067C11.5699 23.2431 11.6695 23.0095 11.8492 22.7356C11.9648 22.5595 12.0593 22.3805 12.0593 22.3377C12.0593 22.2869 11.9228 22.246 11.6647 22.2195C11.1529 22.1668 10.1965 21.9163 9.68667 21.7014C8.13136 21.0456 7.00518 19.8996 6.47848 18.4368C6.14785 17.5186 6.07567 17.0291 6.07798 15.7191C6.07998 14.6004 6.08995 14.4977 6.24658 13.9814C6.44628 13.3233 6.79794 12.5634 7.12949 12.0734L7.37215 11.7148L7.25532 11.1104C7.19103 10.778 7.13842 10.3551 7.13836 10.1706C7.13812 9.56188 7.40368 8.33408 7.58504 8.10525C7.6673 8.00154 8.23902 8.04422 8.76031 8.19299C9.2364 8.32884 10.2266 8.814 10.784 9.18447L11.2403 9.48774L12.0903 9.30348C12.8694 9.13459 13.0634 9.11685 14.4159 9.09063C15.9595 9.06069 16.3531 9.09642 17.5443 9.37476L18.0246 9.48701L18.51 9.18489C19.6453 8.47822 20.6415 8.07934 21.2898 8.07166C21.6614 8.06733 21.6853 8.07586 21.7868 8.25C22.1034 8.79302 22.2255 10.6104 21.9972 11.3808L21.8825 11.7679L22.0759 11.9493C22.3312 12.1887 22.9571 13.4845 23.1146 14.0996C23.2671 14.6954 23.2851 16.1665 23.1507 17.0608C22.9175 18.6134 22.1136 20.1518 21.1594 20.8717C20.4234 21.4269 19.1895 21.9262 17.8919 22.194C17.5411 22.2663 17.246 22.331 17.2363 22.3377C17.2265 22.3444 17.3298 22.5281 17.4659 22.7459C17.9395 23.5038 17.9527 23.5838 17.9527 25.6866C17.9527 26.7793 17.9758 27.5478 18.0086 27.5478C18.0393 27.5478 18.3059 27.4623 18.601 27.3579C22.9967 25.8021 26.2953 22.2485 27.5257 17.7432C28.2792 14.9842 28.1279 11.7589 27.1215 9.12703C25.4766 4.8253 21.9205 1.60651 17.5611 0.473459C16.6638 0.240239 15.9625 0.12555 14.9756 0.0507368C14.0849 -0.0168206 13.8448 -0.0168816 12.9707 0.0503709Z" fill="white"/>
</svg>
