<svg width="28" height="28" viewBox="0 0 28 28" fill="none" xmlns="http://www.w3.org/2000/svg">
<path fill-rule="evenodd" clip-rule="evenodd" d="M6.01711 0.0804828C4.44918 0.314228 3.20926 0.941487 2.07711 2.07369C0.912702 3.2381 0.273633 4.53811 0.0620861 6.17274C-0.0206954 6.81247 -0.0206954 21.1807 0.0620861 21.8204C0.273633 23.4551 0.912702 24.7551 2.07711 25.9195C3.24152 27.0839 4.54153 27.7229 6.17616 27.9345C6.81589 28.0173 21.1841 28.0173 21.8238 27.9345C23.4585 27.7229 24.7585 27.0839 25.9229 25.9195C27.0873 24.7551 27.7264 23.4551 27.9379 21.8204C28.0207 21.1807 28.0207 6.81247 27.9379 6.17274C27.7264 4.53811 27.0873 3.2381 25.9229 2.07369C24.7585 0.909282 23.4585 0.270213 21.8238 0.0586665C21.1233 -0.0319885 6.63731 -0.0120313 6.01711 0.0804828ZM22.4056 2.55338C23.0207 2.7676 23.1586 2.83677 23.6646 3.18495C24.4768 3.74397 25.1151 4.61165 25.4368 5.59415L25.6189 6.15038V13.9966C25.6189 21.5062 25.6146 21.8568 25.5167 22.1708C25.1464 23.3599 24.5169 24.2368 23.5781 24.8718C23.1773 25.1429 22.8249 25.3065 22.2539 25.4868L21.8462 25.6155H14H6.1538L5.59757 25.4334C4.06507 24.9317 2.99367 23.8093 2.48325 22.1708C2.38544 21.8568 2.38106 21.5062 2.38106 13.9966C2.38106 6.48697 2.38544 6.13633 2.48325 5.82232C2.87223 4.57365 3.54892 3.66726 4.56477 3.0341C4.99109 2.76842 5.72229 2.48301 6.17666 2.40493C6.31444 2.38125 9.90877 2.36545 14.164 2.36977L21.9009 2.37764L22.4056 2.55338ZM21.2174 4.72412C20.8277 4.80854 20.605 4.92965 20.3431 5.19954C19.9859 5.56757 19.8777 5.8531 19.8789 6.42377C19.8798 6.84927 19.8995 6.95288 20.0245 7.18925C20.326 7.75932 20.836 8.09274 21.4696 8.13413C21.932 8.16431 22.1784 8.09722 22.5693 7.83455C23.6574 7.10346 23.5324 5.43531 22.3473 4.87137C21.9423 4.67863 21.6207 4.63675 21.2174 4.72412ZM13.1052 7.05611C10.4632 7.42228 8.21202 9.26393 7.38973 11.7318C7.1088 12.575 7.0317 13.0627 7.0317 13.9966C7.0317 14.9311 7.10852 15.4167 7.39082 16.2657C8.04886 18.2446 9.75573 19.9474 11.746 20.6105C12.5781 20.8877 13.0691 20.9649 14 20.9649C14.9309 20.9649 15.4219 20.8877 16.254 20.6105C18.2443 19.9474 19.9511 18.2446 20.6092 16.2657C20.8915 15.4167 20.9683 14.9311 20.9683 13.9966C20.9683 12.7711 20.7299 11.7707 20.1999 10.7729C19.1914 8.87402 17.448 7.56887 15.3396 7.13424C14.8134 7.02576 13.6241 6.98416 13.1052 7.05611ZM15.4068 9.56022C15.99 9.75389 16.1477 9.82973 16.5972 10.1328C17.5144 10.7512 18.1358 11.6075 18.4903 12.7414C18.6008 13.0947 18.6177 13.262 18.6177 13.9966C18.6177 14.8991 18.5528 15.2298 18.2344 15.9499C17.8288 16.867 16.8683 17.8263 15.9482 18.2333C15.2336 18.5493 14.901 18.6143 14 18.6143C13.099 18.6143 12.7664 18.5493 12.0518 18.2333C11.1317 17.8263 10.1712 16.867 9.76562 15.9499C9.44718 15.2298 9.38228 14.8991 9.38228 13.9966C9.38228 13.262 9.39923 13.0947 9.50968 12.7414C9.69575 12.1464 9.85934 11.803 10.1732 11.349C10.7914 10.4548 11.6568 9.83339 12.7175 9.52211C13.2542 9.36464 13.3376 9.35617 14.164 9.37541C14.8143 9.39056 14.9623 9.4126 15.4068 9.56022Z" fill="white"/>
</svg>
