<svg width="28" height="28" viewBox="0 0 28 28" fill="none" xmlns="http://www.w3.org/2000/svg">
<path fill-rule="evenodd" clip-rule="evenodd" d="M2.13457 0.0856706C1.97002 0.129912 1.6997 0.232886 1.53384 0.314479C1.14212 0.507303 0.509782 1.13926 0.31756 1.5301C-0.0211136 2.21844 0.00026877 1.37901 0.00026877 13.9978C0.00026877 26.6166 -0.0211136 25.7771 0.31756 26.4655C0.509454 26.8556 1.14218 27.4883 1.53231 27.6802C2.22065 28.0189 1.38121 27.9975 14 27.9975C26.6188 27.9975 25.7794 28.0189 26.4677 27.6802C26.8578 27.4883 27.4905 26.8556 27.6824 26.4655C28.0211 25.7771 27.9997 26.6166 27.9997 13.9978C27.9997 1.37901 28.0211 2.21844 27.6824 1.5301C27.4905 1.13997 26.8578 0.507248 26.4677 0.315354C25.779 -0.0234836 26.6234 -0.00226521 13.9748 0.00167222C3.99938 0.00478934 2.39324 0.0161641 2.13457 0.0856706ZM7.0709 3.91492C8.34241 4.33021 9.05952 5.64356 8.7233 6.94116C8.37151 8.29881 6.91307 9.11014 5.57036 8.69518C4.06905 8.23116 3.37021 6.58373 4.07151 5.16183C4.39974 4.49635 5.11444 3.95501 5.83613 3.82524C6.17245 3.76476 6.73655 3.80572 7.0709 3.91492ZM20.1791 11.0983C21.5422 11.4917 22.6682 12.4476 23.2956 13.7442C23.7862 14.7579 23.7539 14.3787 23.7747 19.3707L23.7931 23.7867H21.6856H19.578V19.9137C19.578 15.6961 19.5853 15.8039 19.2664 15.2947C18.8261 14.5917 17.9499 14.1827 17.1855 14.3236C16.3931 14.4696 15.7704 15.0086 15.5128 15.7712C15.4314 16.0125 15.4218 16.4457 15.4218 19.9137V23.7867H13.3164H11.211V17.4977V11.2088H13.3164H15.4218V11.9968V12.7849L15.9277 12.28C16.5655 11.6433 17.2777 11.233 18.1288 11.0116C18.5458 10.9032 19.6677 10.9506 20.1791 11.0983ZM8.42198 17.4977V23.7867H6.31655H4.21113V17.4977V11.2088H6.31655H8.42198V17.4977Z" fill="white"/>
</svg>
