<svg width="26" height="21" viewBox="0 0 26 21" fill="none" xmlns="http://www.w3.org/2000/svg">
<path fill-rule="evenodd" clip-rule="evenodd" d="M16.4705 0.0837062C15.9783 0.193144 15.6787 0.29827 15.2518 0.511396C13.8608 1.2059 12.8643 2.44097 12.467 3.96329C12.3254 4.50548 12.2768 5.5408 12.3673 6.08243L12.4186 6.38911L11.8352 6.35011C9.75545 6.21099 7.47245 5.4668 5.53301 4.29567C4.46195 3.64885 3.68557 3.02841 2.63539 1.97978C1.51439 0.860523 1.61245 0.886585 1.32295 1.63071C0.829887 2.89797 0.790262 4.05348 1.20026 5.20736C1.51932 6.10543 2.1957 7.08793 2.87689 7.64281L3.23195 7.93206H3.03614C2.67251 7.93206 1.87976 7.73743 1.39239 7.5285L0.908012 7.32081V7.62906C0.908012 8.72988 1.4892 10.0651 2.36764 10.9826C3.01826 11.6622 3.66095 12.0685 4.56426 12.3715L5.06426 12.5391L4.52607 12.6194C4.21532 12.6657 3.71951 12.6867 3.35295 12.6691C2.60764 12.6331 2.62776 12.5775 3.07601 13.4362C3.56457 14.372 4.36695 15.1748 5.28301 15.6442C5.95139 15.9867 6.30164 16.1004 6.99857 16.201L7.55276 16.281L7.30851 16.4735C7.1742 16.5794 6.87451 16.7817 6.64257 16.9232C4.8337 18.0269 2.8112 18.5569 0.6977 18.4809C-0.23105 18.4476 -0.231051 18.4489 0.688637 18.9429C3.83389 20.632 7.22976 21.1743 10.7518 20.5496C16.0829 19.6041 20.3235 15.8083 22.0642 10.4237C22.5327 8.9745 22.783 7.44362 22.783 6.02755V5.19705L23.1424 4.92742C23.8171 4.42117 24.8572 3.30672 25.3121 2.60272L25.424 2.42966L25.1313 2.55509C24.497 2.82697 22.6456 3.31547 22.5629 3.23272C22.5493 3.21916 22.7386 3.05516 22.9836 2.86835C23.6766 2.33991 24.3412 1.4289 24.629 0.613084L24.7108 0.381333L23.95 0.745709C23.2363 1.08759 22.3856 1.39703 21.7063 1.5619L21.4108 1.63365L21.0813 1.33578C20.4248 0.742397 19.6343 0.326832 18.7659 0.118644C18.1718 -0.0237945 17.0322 -0.0411069 16.4705 0.0837062Z" fill="white"/>
</svg>
